<?xml version="1.0" encoding="UTF-8"?> <!-- Generator: Adobe Illustrator 24.0.1, SVG Export Plug-In . SVG Version: 6.00 Build 0) --> <svg xmlns="http://www.w3.org/2000/svg" xmlns:xlink="http://www.w3.org/1999/xlink" version="1.1" id="Layer_1" x="0px" y="0px" width="70px" height="80.1px" viewBox="0 0 70 80.1" style="enable-background:new 0 0 70 80.1;" xml:space="preserve"> <style type="text/css"> .st0{fill:#117C41;} </style> <path id="Combined_Shape" class="st0" d="M66.5,78.3c0-1,0.7-1.8,1.8-1.9c1,0,1.8,0.8,1.8,1.8s-0.7,1.8-1.8,1.9l0,0 C67.3,80.1,66.5,79.3,66.5,78.3L66.5,78.3z M66.8,78.3c0,0.8,0.6,1.4,1.4,1.5c0.8,0,1.4-0.6,1.5-1.4c0-0.8-0.6-1.4-1.4-1.5 c0,0,0,0-0.1,0C67.4,76.9,66.8,77.5,66.8,78.3L66.8,78.3z M46.3,78.3c-1.9-2.4-1.9-5.9,0-8.3c2.2-2,5.6-2,7.6,0 c1.9,2.4,1.9,5.9,0,8.3C51.8,80.3,48.4,80.3,46.3,78.3z M48.7,71.4c-0.4,0.9-0.6,1.8-0.5,2.7c0,3.1,1,3.5,1.9,3.5 c1,0,1.9-0.4,1.9-3.5c0-2.5-0.6-3.5-1.9-3.5C49.6,70.6,49,70.9,48.7,71.4z M28.4,79.6h-3.1V68.6h5.2c1.3-0.1,2.6,0.2,3.5,1 c0.6,0.6,0.9,1.3,0.8,2.1c0,1.3-0.9,2.4-2.1,2.7l2,5.1h-3.4l-1.6-4.5h-1.4L28.4,79.6L28.4,79.6L28.4,79.6z M28.4,73H30 c1,0,1.5-0.4,1.5-1.1s-0.5-1.2-1.4-1.2h-1.8L28.4,73L28.4,73z M16,79.6h-2.5l3.7-10.9h3.4l3.8,10.9h-3.2l-0.6-2.1h-3.7L16,79.6 L16,79.6L16,79.6z M17.5,75.2h2.3l-1.1-3.5l0,0L17.5,75.2z M63.4,79.6L59,73.4l0,0v6.2h-2.4V68.6h2.9l3.9,5.8l0,0v-5.8h2.4v10.9 H63.4z M42.3,79.6l-2.1-4.7l-1.4,1.9v2.8h-3.1v-11h3.1V73l0,0l3.2-4.3h3l-2.7,3.6l3.4,7.3H42.3z M9.5,79.6v-7.7l0,0l-2.4,7.7H5.1 l-2.6-7.7l0,0v7.7H0.2V68.6h4.5l1.8,5.2l0,0l1.7-5.2h4.4v10.9H9.5z M67.8,79.3h-0.2v-1.9h0.9c0.2,0,0.3,0,0.5,0.1 c0.2,0.1,0.2,0.2,0.2,0.4c0,0.3-0.2,0.5-0.6,0.6l0.6,0.9h-0.3l-0.6-0.9H68L67.8,79.3L67.8,79.3z M67.8,78.1h0.3h0.1h0.2 c0.1,0,0.2,0,0.3-0.1s0.2-0.2,0.2-0.2c0-0.2-0.2-0.3-0.5-0.3h-0.5L67.8,78.1z M65.7,65.7H31.5c-1.1,0-2-0.9-2-2 c0.2-5.8,1.2-11.5,3.3-17c3,1.1,6.2,1.7,9.4,1.7c6.5,0,11.5-2.5,15-7.4l0,0c-0.6,0.2-1.3,0.2-1.9,0.2c-0.9,0-1.9-0.2-2.7-0.5 c-1.8-0.6-3.5-0.8-5.4-0.7c-3.1,0-8.9,0.6-13.4,4.4c1.6-3.7,3.6-7.3,5.9-10.7c1.9-2.8,4-5.6,6.3-8.1c2.2-2.5,4.5-4.8,7-7 c0,0,0.8-0.6,0.7-1.3c-0.1-0.5-0.6-0.9-1.4-1.2c-1-0.3-2.2-0.5-3.3-0.5c-4.3,0-8.4,1.9-11.2,5.3c-2.9,3.8-3.9,8.8-2.7,13.4 c0,0.2,0.1,0.2,0.1,0.4c0.3,1,0.7,2.3-1,5.5c0,0-1,1.8-1.9,3.7l0,0c-0.6-1.9-3.8-11-13.1-12.6c-0.7-0.1-1.4-0.2-2-0.6 c-1.4-0.6-2.5-1.6-3.1-2.9c-0.3,2.7,0.1,5.3,1.2,7.7c1.6,3.8,5.7,8.9,15.8,11.2c-2.3,5.4-3.9,11-4.6,16.8c-0.1,1.1-1,2-2.2,2L0,65.7 V0l0,0c3.5,0.8,6.9,1.9,10.2,3.1c7.9,2.7,15.4,6.3,22.5,10.5c7.2-4.3,14.7-7.8,22.6-10.5c3.4-1.2,6.8-2.3,10.3-3.1V65.7L65.7,65.7 L65.7,65.7z M53.1,20.5C49,23.6,45.5,27.4,43,31.7c-1,1.6-1.8,3.4-2.3,5.2c6.4-0.4,13.6-4.7,14.3-11.7c0.2-2.5,0.1-4.1-0.5-4.7 c-0.2-0.2-0.3-0.2-0.6-0.2C53.6,20.2,53.3,20.4,53.1,20.5z"></path> </svg> 