<svg height="148" viewBox="0 0 142 148" width="142" xmlns="http://www.w3.org/2000/svg"><g fill="none" fill-rule="evenodd" transform=""><path d="m21.4391216 122.085045c0-2.482545-1.7084775-4.303164-3.9676847-4.303164h-3.4182342v8.605049h3.3625856c2.3148558 0 4.0233333-1.820619 4.0233333-4.301885m14.3292072 0c0 8.494302-6.3931982 14.782607-14.9349459 14.782607h-6.7801802v8.990426h-14.05352252v-38.610693h20.83370272c8.5973964 0 14.9349459 6.342719 14.9349459 14.83766" fill="#ff642d"/><path d="m39.3531892 145.857566h14.0535225v-38.610053h-14.0535225z" fill="#ff642d"/><path d="m56.164582 107.247513h14.9912342l6.1725225 24.490013 6.1725226-24.490013h14.9905946l-13.2827568 38.610053h-15.762z" fill="#ff642d"/><path d="m126.872203 126.552412c0-4.246831-2.315496-8.108284-7.330271-8.108284-5.015414 0-7.33027 3.861453-7.33027 8.108284 0 4.24747 2.314856 8.108923 7.33027 8.108923 5.014775 0 7.330271-3.861453 7.330271-8.108923m-29.2647931 0c0-10.921153 8.1010361-20.684254 21.9345221-20.684254 13.832847 0 21.934523 9.763101 21.934523 20.684254 0 10.921793-8.101676 20.684893-21.934523 20.684893-13.833486 0-21.9345221-9.7631-21.9345221-20.684893" fill="#540059"/><g fill="#ff642d"><path d="m111.3635 92.6526025v9.3207495h-11.8486847v-32.7077645h11.8486847v9.3207494h26.729901v14.0662656z"/><path d="m124.204969 48.2470414-12.786396 3.1995265 12.786396 3.1988863zm9.644487-2.4812654v11.30653l4.244009 1.0492244v14.4503625l-38.5792254-13.2378968v-15.8299102l38.5792254-13.2378968v14.4503624z"/><path d="m99.5144955 26.9535461v-14.0649853h26.7299005v-11.9697372h11.848685v26.0347225z"/><path d="m105.138811 1-.81206 2.8990113-.812639-2.8990113h-.860032v4h.522493v-3.28319209l.917252 3.28319209h.465851l.917253-3.28319209v3.28319209h.523071v-4zm-5.138811 0v.57980226h.795877v3.42019774h.522493v-3.42019774h.805125v-.57980226z"/></g></g></svg>