<svg width="143" height="50" viewBox="0 0 143 50" fill="none" xmlns="http://www.w3.org/2000/svg">
<path d="M41.2358 11.9014V35.7093L20.6204 47.6157L8.20199 40.4478L24.867 30.9607L16.5847 26.157L0.0552152 35.7444L0 35.7093V11.9014L0.0451763 11.8763L28.8475 28.5564L36.9391 23.8781L8.12669 7.20811L20.6204 0L41.2358 11.9014Z" fill="white"/>
<path d="M49.739 33.33L63.7888 14.5819L49.7641 14.5618L49.7741 7.1529L75.0075 7.18301L74.9975 13.9494L60.8975 32.6975L75.3187 32.7176L75.3087 40.1265L49.7289 40.0914L49.739 33.325V33.33Z" fill="white"/>
<path d="M101.782 35.1722L88.1036 35.1521L86.417 40.1365L77.181 40.1265L89.6195 7.20309L100.286 7.21815L112.689 40.1717L103.453 40.1616L101.782 35.1722ZM90.3323 27.9992L99.5683 28.0092L94.9453 14.622L90.3373 27.9992H90.3323Z" fill="white"/>
<path d="M128.336 6.71619C135.544 6.72623 139.986 10.2851 142.4 14.3861L135.283 18.1307C133.952 15.9572 131.438 14.2255 128.325 14.2205C122.944 14.2154 119.135 18.3566 119.13 23.7376C119.125 29.1186 122.919 33.2748 128.3 33.2798C130.87 33.2798 133.189 32.3963 134.525 31.3121V28.5463L126.97 28.5363L126.98 21.4737L142.882 21.4938L142.867 34.3841C139.308 38.2793 134.515 40.7941 128.29 40.7841C118.462 40.769 110.471 34.1934 110.486 23.7225C110.501 13.2517 118.507 6.69612 128.336 6.70615V6.71619Z" fill="white"/>
<path d="M50.2962 43.8309V43.078H55.4513V43.8309H53.2928V49.8695H52.4496V43.8309H50.2962Z" fill="white"/>
<path d="M59.1908 44.8298C60.6766 44.8298 61.5551 45.9894 61.5551 47.4701V47.6659H57.5695C57.6298 48.5945 58.2823 49.3675 59.3414 49.3675C59.9036 49.3675 60.4708 49.1417 60.8573 48.7451L61.2238 49.2421C60.7369 49.7289 60.0743 49.995 59.2661 49.995C57.8105 49.995 56.7614 48.9459 56.7614 47.4099C56.7614 45.9843 57.7803 44.8349 59.1858 44.8349L59.1908 44.8298ZM60.7971 47.1037C60.7871 46.3708 60.3002 45.4623 59.1758 45.4623C58.1267 45.4623 57.6047 46.3508 57.5645 47.1037H60.7971Z" fill="white"/>
<path d="M65.4653 44.8298C66.3638 44.8298 66.8909 45.1963 67.2673 45.6832L66.7604 46.15C66.4341 45.7032 66.0175 45.5075 65.5055 45.5075C64.4564 45.5075 63.8038 46.3106 63.8038 47.3999C63.8038 48.4891 64.4564 49.3073 65.5055 49.3073C66.0125 49.3073 66.4341 49.1015 66.7604 48.6648L67.2673 49.1316C66.8909 49.6185 66.3588 49.9849 65.4653 49.9849C63.9996 49.9849 63.0107 48.8656 63.0107 47.3999C63.0107 45.9341 63.9996 44.8248 65.4653 44.8248V44.8298Z" fill="white"/>
<path d="M72.1765 46.6369C72.1765 45.7735 71.7297 45.5175 71.0672 45.5175C70.4748 45.5175 69.9076 45.8839 69.6115 46.2805V49.8745H68.8485V43.078H69.6115V45.6631C69.9578 45.2565 70.6305 44.8298 71.3734 44.8298C72.4024 44.8298 72.9445 45.3268 72.9445 46.401V49.8745H72.1815V46.6369H72.1765Z" fill="white"/>
<path d="M78.3004 46.657C78.3004 45.7886 77.8637 45.5175 77.2011 45.5175C76.5987 45.5175 76.0315 45.8839 75.7454 46.2805V49.8745H74.9824V44.9553H75.7454V45.6681C76.0918 45.2615 76.7644 44.8349 77.4972 44.8349C78.5263 44.8349 79.0684 45.3569 79.0684 46.4261V49.8795H78.3054V46.662L78.3004 46.657Z" fill="white"/>
<path d="M80.9708 43.6101C80.9708 43.324 81.2067 43.1031 81.4778 43.1031C81.7488 43.1031 81.9948 43.329 81.9948 43.6101C81.9948 43.8912 81.7589 44.1321 81.4778 44.1321C81.1967 44.1321 80.9708 43.8962 80.9708 43.6101ZM81.1013 44.9553H81.8643V49.8745H81.1013V44.9553Z" fill="white"/>
<path d="M86.0707 44.8298C86.9692 44.8298 87.4962 45.1963 87.8727 45.6832L87.3657 46.15C87.0395 45.7032 86.6228 45.5075 86.1108 45.5075C85.0617 45.5075 84.4092 46.3106 84.4092 47.3999C84.4092 48.4891 85.0617 49.3073 86.1108 49.3073C86.6178 49.3073 87.0395 49.1015 87.3657 48.6648L87.8727 49.1316C87.4962 49.6185 86.9642 49.9849 86.0707 49.9849C84.605 49.9849 83.6161 48.8656 83.6161 47.3999C83.6161 45.9341 84.605 44.8248 86.0707 44.8248V44.8298Z" fill="white"/>
<path d="M92.5309 49.3123C92.1243 49.7591 91.5621 49.995 90.8995 49.995C90.0663 49.995 89.1778 49.4328 89.1778 48.3636C89.1778 47.2945 90.0663 46.7423 90.8995 46.7423C91.5721 46.7423 92.1343 46.9581 92.5309 47.4149V46.5265C92.5309 45.8639 91.9988 45.4874 91.286 45.4874C90.6937 45.4874 90.2169 45.7032 89.7801 46.1701L89.4238 45.638C89.9558 45.0858 90.5833 44.8248 91.3914 44.8248C92.4305 44.8248 93.2989 45.2916 93.2989 46.4863V49.8695H92.5359V49.3073L92.5309 49.3123ZM92.5309 47.9068C92.2347 47.5003 91.7177 47.2945 91.1756 47.2945C90.4628 47.2945 89.9608 47.7412 89.9608 48.3737C89.9608 49.0061 90.4578 49.4428 91.1756 49.4428C91.7177 49.4428 92.2347 49.237 92.5309 48.8304V47.9018V47.9068Z" fill="white"/>
<path d="M95.3318 43.078H96.0948V49.8745H95.3318V43.078Z" fill="white"/>
<path d="M101.395 48.2733C101.842 48.7702 102.575 49.2421 103.534 49.2421C104.749 49.2421 105.135 48.5895 105.135 48.0725C105.135 47.2593 104.312 47.0334 103.413 46.7875C102.324 46.5014 101.109 46.1952 101.109 44.86C101.109 43.7406 102.108 42.9776 103.443 42.9776C104.482 42.9776 105.286 43.324 105.858 43.9263L105.351 44.5487C104.844 43.9865 104.126 43.7356 103.383 43.7356C102.57 43.7356 101.988 44.1723 101.988 44.8148C101.988 45.4974 102.771 45.7032 103.639 45.9341C104.749 46.2303 106.013 46.5767 106.013 48.0022C106.013 48.9911 105.341 50 103.509 50C102.329 50 101.461 49.5533 100.899 48.9208L101.395 48.2783V48.2733Z" fill="white"/>
<path d="M109.889 44.8298C111.374 44.8298 112.253 45.9894 112.253 47.4701V47.6659H108.267C108.327 48.5945 108.98 49.3675 110.039 49.3675C110.601 49.3675 111.169 49.1417 111.555 48.7451L111.921 49.2421C111.435 49.7289 110.772 49.995 109.964 49.995C108.508 49.995 107.459 48.9459 107.459 47.4099C107.459 45.9843 108.478 44.8349 109.884 44.8349L109.889 44.8298ZM111.5 47.1037C111.49 46.3708 111.003 45.4623 109.879 45.4623C108.829 45.4623 108.307 46.3508 108.267 47.1037H111.5Z" fill="white"/>
<path d="M113.995 44.9553H114.758V45.7484C115.154 45.2314 115.726 44.8499 116.399 44.8499V45.633C116.309 45.6129 116.213 45.6029 116.093 45.6029C115.626 45.6029 114.983 45.9894 114.758 46.3859V49.8695H113.995V44.9503V44.9553Z" fill="white"/>
<path d="M117.132 44.9553H117.955L119.596 48.9911L121.228 44.9553H122.061L120.013 49.8745H119.18L117.132 44.9553Z" fill="white"/>
<path d="M123.236 43.6101C123.236 43.324 123.472 43.1031 123.743 43.1031C124.014 43.1031 124.265 43.329 124.265 43.6101C124.265 43.8912 124.029 44.1321 123.743 44.1321C123.456 44.1321 123.236 43.8962 123.236 43.6101ZM123.366 44.9553H124.129V49.8745H123.366V44.9553Z" fill="white"/>
<path d="M128.341 44.8298C129.239 44.8298 129.766 45.1963 130.143 45.6832L129.636 46.15C129.309 45.7032 128.893 45.5075 128.381 45.5075C127.332 45.5075 126.679 46.3106 126.679 47.3999C126.679 48.4891 127.332 49.3073 128.381 49.3073C128.888 49.3073 129.309 49.1015 129.636 48.6648L130.143 49.1316C129.766 49.6185 129.234 49.9849 128.341 49.9849C126.875 49.9849 125.886 48.8656 125.886 47.3999C125.886 45.9341 126.875 44.8248 128.341 44.8248V44.8298Z" fill="white"/>
<path d="M133.862 44.8298C135.348 44.8298 136.226 45.9894 136.226 47.4701V47.6659H132.241C132.301 48.5945 132.954 49.3675 134.013 49.3675C134.575 49.3675 135.142 49.1417 135.529 48.7451L135.895 49.2421C135.408 49.7289 134.746 49.995 133.937 49.995C132.482 49.995 131.433 48.9459 131.433 47.4099C131.433 45.9843 132.452 44.8349 133.857 44.8349L133.862 44.8298ZM135.468 47.1037C135.458 46.3708 134.971 45.4623 133.847 45.4623C132.798 45.4623 132.276 46.3508 132.236 47.1037H135.468Z" fill="white"/>
<path d="M137.933 48.6698C138.259 49.0463 138.882 49.3726 139.554 49.3726C140.307 49.3726 140.714 49.0362 140.714 48.5594C140.714 48.0173 140.111 47.8466 139.449 47.681C138.616 47.4852 137.667 47.2643 137.667 46.2454C137.667 45.4824 138.329 44.8298 139.499 44.8298C140.332 44.8298 140.925 45.1461 141.321 45.5426L140.965 46.0747C140.669 45.7183 140.132 45.4523 139.499 45.4523C138.826 45.4523 138.41 45.7585 138.41 46.1952C138.41 46.672 138.972 46.8276 139.609 46.9782C140.463 47.174 141.452 47.4149 141.452 48.5042C141.452 49.3274 140.789 49.99 139.514 49.99C138.711 49.99 138.028 49.744 137.526 49.2169L137.923 48.6648L137.933 48.6698Z" fill="white"/>
</svg>
